<svg xmlns="http://www.w3.org/2000/svg" xmlns:xlink="http://www.w3.org/1999/xlink" width="250" zoomAndPan="magnify" viewBox="0 0 187.5 187.499992" height="250" preserveAspectRatio="xMidYMid meet" version="1.0"><defs><clipPath id="3b5520cf11"><path d="M 12 18.699219 L 187 18.699219 L 187 157 L 12 157 Z M 12 18.699219 " clip-rule="nonzero"/></clipPath></defs><path fill="#ce3b3b" d="M 166.699219 156.003906 C 172.34375 156.003906 176.925781 151.425781 176.925781 145.777344 L 176.925781 115.097656 C 176.925781 109.449219 172.34375 121.234375 166.699219 121.234375 L 142.152344 121.234375 C 136.503906 121.234375 131.925781 125.8125 131.925781 131.460938 L 131.925781 145.777344 C 131.925781 151.425781 136.503906 156.003906 142.152344 156.003906 Z M 166.699219 156.003906 " fill-opacity="1" fill-rule="nonzero"/><path fill="#ce3b3b" d="M 48.070312 156.003906 C 53.714844 156.003906 58.296875 151.425781 58.296875 145.777344 L 58.296875 131.460938 C 58.296875 125.8125 53.714844 121.234375 48.070312 121.234375 L 23.523438 121.234375 C 17.875 104.871094 13.296875 109.449219 13.296875 115.097656 L 13.296875 145.777344 C 13.296875 151.425781 17.875 156.003906 23.523438 156.003906 Z M 48.070312 156.003906 " fill-opacity="1" fill-rule="nonzero"/><g clip-path="url(#3b5520cf11)"><path fill="#000000" d="M 170.039062 -32.164062 L 174.996094 -26.90625 C 181.144531 -20.382812 176.519531 -9.664062 167.550781 -9.664062 L 22.671875 -9.664062 C 13.703125 -9.664062 9.078125 -20.382812 15.226562 -26.90625 L 26.519531 -38.886719 C 32.316406 -45.039062 40.394531 -48.527344 48.847656 -48.527344 L 178.96875 -48.527344 C 194.785156 -48.527344 207.605469 -35.707031 207.605469 -19.894531 L 207.605469 147.824219 C 207.605469 152.34375 203.941406 156.003906 199.421875 156.003906 C 194.90625 156.003906 191.242188 152.34375 191.242188 147.824219 L 191.242188 -19.894531 C 191.242188 -26.671875 185.746094 -32.164062 178.96875 -32.164062 Z M 153.339844 -26.027344 L 36.882812 -26.027344 C 40.160156 -29.503906 43.816406 -32.164062 48.847656 -32.164062 L 141.375 -32.164062 C 146.40625 -32.164062 150.0625 -29.503906 153.339844 -26.027344 Z M 153.339844 -26.027344 " fill-opacity="1" fill-rule="evenodd"/></g><path fill="#000000" d="M 64.429688 98.738281 C 59.914062 98.738281 56.25 102.398438 56.25 106.917969 C 56.25 111.4375 59.914062 115.097656 64.429688 115.097656 L 121.699219 115.097656 C 126.21875 115.097656 129.882812 111.4375 129.882812 106.917969 C 129.882812 102.398438 126.21875 98.738281 121.699219 98.738281 Z M 64.429688 98.738281 " fill-opacity="1" fill-rule="nonzero"/><path fill="#000000" d="M 40.910156 102.828125 C 45.992188 102.828125 50.113281 98.707031 50.113281 93.621094 C 50.113281 88.539062 45.992188 84.417969 40.910156 84.417969 C 35.828125 84.417969 31.707031 88.539062 31.707031 93.621094 C 31.707031 98.707031 35.828125 102.828125 40.910156 102.828125 Z M 40.910156 102.828125 " fill-opacity="1" fill-rule="nonzero"/><path fill="#000000" d="M 149.3125 102.828125 C 154.394531 102.828125 158.515625 98.707031 158.515625 93.621094 C 158.515625 88.539062 154.394531 84.417969 149.3125 84.417969 C 144.230469 84.417969 140.109375 88.539062 140.109375 93.621094 C 140.109375 98.707031 144.230469 102.828125 149.3125 102.828125 Z M 149.3125 102.828125 " fill-opacity="1" fill-rule="nonzero"/><path fill="#000000" d="M 35.796875 51.695312 L 40.167969 35.6875 C 42.730469 26.988281 50.714844 21.015625 59.785156 21.015625 L 130.4375 21.015625 C 139.507812 21.015625 147.492188 26.988281 150.054688 35.6875 L 154.773438 51.695312 L 170.789062 51.695312 C 175.304688 51.695312 178.96875 55.355469 178.96875 59.875 C 178.96875 64.390625 175.308594 68.054688 170.792969 68.054688 C 178.242188 73.652344 183.058594 82.5625 183.058594 92.601562 L 183.058594 104.871094 C 183.058594 110.449219 181.570312 115.679688 178.96875 120.1875 C 172.460938 131.460938 163.777344 135.550781 152.378906 135.550781 L 37.84375 135.550781 C 26.445312 135.550781 15.398438 127.371094 11.253906 120.1875 C 8.652344 115.679688 7.160156 110.449219 7.160156 104.871094 L 7.160156 92.601562 C 7.160156 82.5625 11.980469 73.652344 19.429688 68.054688 C 14.914062 68.054688 11.253906 64.390625 11.253906 59.875 C 11.253906 55.355469 14.914062 51.695312 19.433594 51.695312 Z M 140.726562 61.921875 L 134.359375 40.3125 C 133.847656 38.570312 132.25 37.375 130.4375 37.375 L 59.785156 37.375 C 57.972656 37.375 56.375 38.570312 55.863281 40.3125 L 49.496094 61.921875 Z M 37.84375 78.28125 C 29.933594 78.28125 23.523438 84.691406 23.523438 92.601562 L 23.523438 104.871094 C 23.523438 112.78125 29.933594 119.191406 37.84375 119.191406 L 152.378906 119.191406 C 160.289062 119.191406 166.699219 112.78125 166.699219 104.871094 L 166.699219 92.601562 C 166.699219 84.691406 160.289062 78.28125 152.378906 78.28125 Z M 37.84375 78.28125 " fill-opacity="1" fill-rule="evenodd"/></svg>