<!-- icon666.com - MILLIONS vector ICONS FREE --><svg viewBox="0 0 512 512" xmlns="http://www.w3.org/2000/svg"><path d="m451 106c0-57.898438-47.101562-106-105-106s-105 48.101562-105 106c0 20.398438 6 40.199219 16.800781 57.300781l88.199219 135.296875 88.199219-135.296875c10.800781-17.101562 16.800781-36.902343 16.800781-57.300781zm-105 45c-24.902344 0-45-20.101562-45-45 0-24.902344 20.097656-45 45-45s45 20.097656 45 45c0 24.898438-20.097656 45-45 45zm0 0" fill="#000000" style="fill: rgb(192, 1, 19);"></path><path d="m346 91c-8.402344 0-15 6.597656-15 15 0 8.398438 6.597656 15 15 15s15-6.601562 15-15c0-8.402344-6.597656-15-15-15zm0 0" fill="#000000" style="fill: rgb(192, 1, 19);"></path><path d="m0 512 151-52.800781v-333.398438l-151 60zm0 0" fill="#000000" style="fill: rgb(192, 1, 19);"></path><path d="m214.300781 136.300781-33.300781-11.101562v332.5l150 50.101562v-177.402343l-98.402344-150.597657c-8.398437-13.800781-14.699218-28.5-18.296875-43.5zm0 0" fill="#000000" style="fill: rgb(192, 1, 19);"></path><path d="m459.699219 179.199219-98.699219 151.199219v176.800781l151-60v-333.398438l-32.800781 12.597657c-2.699219 18.601562-9.300781 36.601562-19.5 52.800781zm0 0" fill="#000000" style="fill: rgb(192, 1, 19);"></path></svg>