<?xml version="1.0" encoding="UTF-8"?>
<svg xmlns="http://www.w3.org/2000/svg" xmlns:xlink="http://www.w3.org/1999/xlink" width="15px" height="15px" viewBox="0 0 15 14" version="1.1">
<g id="surface1">
<path style=" stroke:none;fill-rule:nonzero;fill:rgb(100%,100%,100%);fill-opacity:1;" d="M 14.96875 10.847656 C 14.925781 10.726562 14.65625 10.550781 14.15625 10.320312 C 14.023438 10.246094 13.832031 10.148438 13.582031 10.023438 C 13.335938 9.894531 13.109375 9.78125 12.90625 9.675781 C 12.703125 9.566406 12.515625 9.464844 12.335938 9.367188 C 12.308594 9.347656 12.21875 9.289062 12.070312 9.191406 C 11.921875 9.097656 11.796875 9.023438 11.691406 8.976562 C 11.589844 8.933594 11.488281 8.910156 11.386719 8.910156 C 11.246094 8.910156 11.070312 9.003906 10.855469 9.191406 C 10.644531 9.382812 10.449219 9.585938 10.269531 9.808594 C 10.09375 10.03125 9.902344 10.234375 9.707031 10.425781 C 9.507812 10.613281 9.34375 10.707031 9.214844 10.707031 C 9.152344 10.707031 9.070312 10.691406 8.976562 10.660156 C 8.878906 10.625 8.808594 10.597656 8.757812 10.574219 C 8.707031 10.550781 8.621094 10.503906 8.5 10.433594 C 8.378906 10.367188 8.3125 10.328125 8.300781 10.320312 C 7.324219 9.816406 6.492188 9.238281 5.796875 8.589844 C 5.101562 7.941406 4.480469 7.160156 3.941406 6.253906 C 3.933594 6.242188 3.894531 6.175781 3.820312 6.066406 C 3.746094 5.953125 3.695312 5.871094 3.671875 5.828125 C 3.644531 5.78125 3.617188 5.710938 3.578125 5.621094 C 3.542969 5.53125 3.527344 5.457031 3.527344 5.398438 C 3.527344 5.28125 3.628906 5.125 3.832031 4.941406 C 4.03125 4.753906 4.253906 4.578125 4.492188 4.414062 C 4.730469 4.25 4.949219 4.066406 5.152344 3.867188 C 5.355469 3.667969 5.453125 3.503906 5.453125 3.371094 C 5.453125 3.277344 5.429688 3.183594 5.378906 3.085938 C 5.332031 2.992188 5.253906 2.875 5.152344 2.734375 C 5.046875 2.59375 4.984375 2.511719 4.964844 2.484375 C 4.859375 2.320312 4.75 2.144531 4.632812 1.953125 C 4.519531 1.765625 4.398438 1.554688 4.261719 1.324219 C 4.125 1.089844 4.019531 0.910156 3.941406 0.785156 C 3.695312 0.320312 3.503906 0.0703125 3.378906 0.03125 C 3.328125 0.0117188 3.253906 0 3.152344 0 C 2.960938 0 2.710938 0.03125 2.402344 0.0976562 C 2.09375 0.164062 1.851562 0.234375 1.671875 0.308594 C 1.316406 0.449219 0.941406 0.851562 0.542969 1.519531 C 0.179688 2.144531 0 2.761719 0 3.371094 C 0 3.550781 0.0117188 3.722656 0.0390625 3.890625 C 0.0625 4.0625 0.105469 4.253906 0.171875 4.464844 C 0.234375 4.675781 0.285156 4.832031 0.324219 4.9375 C 0.363281 5.039062 0.4375 5.222656 0.542969 5.488281 C 0.648438 5.753906 0.714844 5.914062 0.734375 5.976562 C 0.984375 6.625 1.277344 7.203125 1.621094 7.714844 C 2.179688 8.5625 2.945312 9.441406 3.914062 10.34375 C 4.882812 11.25 5.824219 11.964844 6.734375 12.488281 C 7.28125 12.804688 7.902344 13.082031 8.597656 13.3125 C 8.660156 13.332031 8.835938 13.394531 9.117188 13.492188 C 9.402344 13.59375 9.601562 13.660156 9.710938 13.695312 C 9.820312 13.734375 9.988281 13.78125 10.214844 13.839844 C 10.445312 13.902344 10.648438 13.941406 10.828125 13.964844 C 11.011719 13.988281 11.195312 14 11.386719 14 C 12.042969 14 12.703125 13.832031 13.371094 13.492188 C 14.085938 13.121094 14.519531 12.769531 14.667969 12.4375 C 14.746094 12.273438 14.820312 12.046875 14.894531 11.757812 C 14.964844 11.46875 15 11.234375 15 11.058594 C 15 10.964844 14.988281 10.894531 14.96875 10.847656 Z M 14.96875 10.847656 "/>
</g>
</svg>
