<?xml version="1.0" encoding="UTF-8"?>
<svg xmlns="http://www.w3.org/2000/svg" xmlns:xlink="http://www.w3.org/1999/xlink" width="15px" height="15px" viewBox="0 0 15 15" version="1.1">
<g id="surface1">
<path style=" stroke:none;fill-rule:nonzero;fill:rgb(100%,100%,100%);fill-opacity:1;" d="M 11.097656 8.621094 C 11.070312 8.605469 9.976562 8.066406 9.78125 7.996094 C 9.703125 7.96875 9.617188 7.941406 9.527344 7.941406 C 9.378906 7.941406 9.253906 8.015625 9.160156 8.160156 C 9.050781 8.320312 8.71875 8.707031 8.617188 8.824219 C 8.605469 8.839844 8.585938 8.855469 8.574219 8.855469 C 8.566406 8.855469 8.394531 8.785156 8.34375 8.765625 C 7.171875 8.253906 6.28125 7.03125 6.160156 6.824219 C 6.140625 6.792969 6.140625 6.78125 6.140625 6.78125 C 6.144531 6.765625 6.183594 6.722656 6.203125 6.703125 C 6.265625 6.644531 6.328125 6.566406 6.390625 6.492188 C 6.421875 6.457031 6.449219 6.421875 6.480469 6.386719 C 6.570312 6.28125 6.609375 6.199219 6.65625 6.105469 L 6.679688 6.054688 C 6.796875 5.828125 6.699219 5.636719 6.667969 5.578125 C 6.640625 5.523438 6.179688 4.410156 6.128906 4.292969 C 6.011719 4.011719 5.855469 3.878906 5.640625 3.878906 C 5.617188 3.878906 5.640625 3.878906 5.554688 3.882812 C 5.453125 3.886719 4.894531 3.960938 4.644531 4.117188 C 4.382812 4.28125 3.9375 4.808594 3.9375 5.734375 C 3.9375 6.570312 4.46875 7.359375 4.695312 7.65625 C 4.703125 7.664062 4.710938 7.679688 4.726562 7.703125 C 5.597656 8.972656 6.683594 9.914062 7.78125 10.355469 C 8.839844 10.777344 9.34375 10.828125 9.628906 10.828125 C 9.75 10.828125 9.84375 10.816406 9.929688 10.808594 L 9.980469 10.804688 C 10.347656 10.769531 11.152344 10.355469 11.335938 9.847656 C 11.480469 9.445312 11.515625 9.007812 11.421875 8.851562 C 11.355469 8.742188 11.242188 8.6875 11.097656 8.621094 Z M 11.097656 8.621094 "/>
<path style=" stroke:none;fill-rule:nonzero;fill:rgb(100%,100%,100%);fill-opacity:1;" d="M 7.632812 0 C 3.570312 0 0.265625 3.28125 0.265625 7.3125 C 0.265625 8.617188 0.613281 9.894531 1.277344 11.011719 L 0.0117188 14.742188 C -0.0117188 14.8125 0.00390625 14.890625 0.0546875 14.941406 C 0.09375 14.980469 0.144531 15 0.195312 15 C 0.214844 15 0.234375 14.996094 0.253906 14.992188 L 4.144531 13.753906 C 5.210938 14.324219 6.414062 14.625 7.632812 14.625 C 11.695312 14.625 15 11.34375 15 7.3125 C 15 3.28125 11.695312 0 7.632812 0 Z M 7.632812 13.101562 C 6.488281 13.101562 5.375 12.769531 4.421875 12.144531 C 4.390625 12.121094 4.351562 12.109375 4.316406 12.109375 C 4.296875 12.109375 4.277344 12.113281 4.257812 12.121094 L 2.304688 12.738281 L 2.9375 10.882812 C 2.957031 10.824219 2.945312 10.757812 2.910156 10.707031 C 2.179688 9.710938 1.796875 8.539062 1.796875 7.3125 C 1.796875 4.121094 4.414062 1.523438 7.632812 1.523438 C 10.851562 1.523438 13.46875 4.121094 13.46875 7.3125 C 13.46875 10.503906 10.851562 13.101562 7.632812 13.101562 Z M 7.632812 13.101562 "/>
</g>
</svg>
